<?xml version="1.0" encoding="UTF-8"?>
<svg width="18px" height="18px" viewBox="0 0 18 18" version="1.1" xmlns="http://www.w3.org/2000/svg" xmlns:xlink="http://www.w3.org/1999/xlink">
    <!-- Generator: Sketch 46.2 (44496) - http://www.bohemiancoding.com/sketch -->
    <title>Group 24</title>
    <desc>Created with Sketch.</desc>
    <defs></defs>
    <g id="Page-1" stroke="none" stroke-width="1" fill="none" fill-rule="evenodd">
        <g id="Group-24" fill-rule="nonzero" fill="#58AC15">
            <path d="M9.2525454,17.45163 C4.55812503,17.45163 0.7525454,13.6460504 0.7525454,8.95163002 C0.7525454,4.25720965 4.55812503,0.451630024 9.2525454,0.451630024 C13.9469658,0.451630024 17.7525454,4.25720965 17.7525454,8.95163002 C17.7525454,13.6460504 13.9469658,17.45163 9.2525454,17.45163 Z M9.2525454,16.45163 C13.394681,16.45163 16.7525454,13.0937656 16.7525454,8.95163002 C16.7525454,4.8094944 13.394681,1.45163002 9.2525454,1.45163002 C5.11040978,1.45163002 1.7525454,4.8094944 1.7525454,8.95163002 C1.7525454,13.0937656 5.11040978,16.45163 9.2525454,16.45163 Z" id="Oval-5"></path>
            <polygon id="Path-10" points="5.63725104 8.77859954 4.93014426 9.48570632 7.69139641 12.2469585 13.5749465 6.36340835 12.8678398 5.65630157 7.69139641 10.8327449"></polygon>
        </g>
    </g>
</svg>