<?xml version="1.0" encoding="UTF-8"?>
<svg width="18px" height="18px" viewBox="0 0 18 18" version="1.1" xmlns="http://www.w3.org/2000/svg" xmlns:xlink="http://www.w3.org/1999/xlink">
    <!-- Generator: Sketch 46.2 (44496) - http://www.bohemiancoding.com/sketch -->
    <title>Group 23</title>
    <desc>Created with Sketch.</desc>
    <defs></defs>
    <g id="Page-1" stroke="none" stroke-width="1" fill="none" fill-rule="evenodd">
        <g id="Group-23" fill="#E50600">
            <path d="M8.84832549,17.5 C4.15390512,17.5 0.34832549,13.6944204 0.34832549,9 C0.34832549,4.30557963 4.15390512,0.5 8.84832549,0.5 C13.5427459,0.5 17.3483255,4.30557963 17.3483255,9 C17.3483255,13.6944204 13.5427459,17.5 8.84832549,17.5 Z M8.84832549,16.5 C12.9904611,16.5 16.3483255,13.1421356 16.3483255,9 C16.3483255,4.85786438 12.9904611,1.5 8.84832549,1.5 C4.70618987,1.5 1.34832549,4.85786438 1.34832549,9 C1.34832549,13.1421356 4.70618987,16.5 8.84832549,16.5 Z" id="Oval-5-Copy" fill-rule="nonzero"></path>
            <path d="M8.44447152,10.5993072 L9.18147152,10.5993072 L9.58847152,5.71530721 L9.58847152,5.33030721 L8.02647152,5.33030721 L8.02647152,5.71530721 L8.44447152,10.5993072 Z M8.08147152,13.0303072 L9.54447152,13.0303072 L9.54447152,11.5233072 L8.08147152,11.5233072 L8.08147152,13.0303072 Z" id="!"></path>
        </g>
    </g>
</svg>